<svg width="32" height="32" viewBox="0 0 32 32" fill="none" xmlns="http://www.w3.org/2000/svg">
<g id="fluent:clipboard-search-20-filled">
<path id="Vector" d="M13.6 3.20001C13.1035 3.19975 12.6191 3.3535 12.2136 3.64006C11.8081 3.92662 11.5015 4.33189 11.336 4.80001H8.8C8.16348 4.80001 7.55303 5.05287 7.10294 5.50296C6.65285 5.95304 6.4 6.56349 6.4 7.20001V13.2096C7.74299 12.7342 9.19682 12.668 10.5775 13.0192C11.9582 13.3704 13.2036 14.1233 14.1562 15.1826C15.1088 16.2419 15.7257 17.56 15.9289 18.9701C16.1321 20.3802 15.9124 21.8188 15.2976 23.104L18.4976 26.304C18.8179 26.6242 19.0411 27.0285 19.1413 27.4702C19.2415 27.9119 19.2147 28.3729 19.064 28.8H23.2C23.8365 28.8 24.447 28.5472 24.8971 28.0971C25.3471 27.647 25.6 27.0365 25.6 26.4V7.20001C25.6 6.56349 25.3471 5.95304 24.8971 5.50296C24.447 5.05287 23.8365 4.80001 23.2 4.80001H20.664C20.4985 4.33189 20.1919 3.92662 19.7864 3.64006C19.3809 3.3535 18.8965 3.19975 18.4 3.20001H13.6ZM18.4 4.80001C18.6122 4.80001 18.8157 4.8843 18.9657 5.03433C19.1157 5.18436 19.2 5.38784 19.2 5.60001C19.2 5.81219 19.1157 6.01567 18.9657 6.1657C18.8157 6.31573 18.6122 6.40001 18.4 6.40001H13.6C13.3878 6.40001 13.1843 6.31573 13.0343 6.1657C12.8843 6.01567 12.8 5.81219 12.8 5.60001C12.8 5.38784 12.8843 5.18436 13.0343 5.03433C13.1843 4.8843 13.3878 4.80001 13.6 4.80001H18.4ZM13.2848 23.3536C14.1327 22.2198 14.5196 20.8068 14.3677 19.3992C14.2158 17.9916 13.5363 16.6937 12.4661 15.7669C11.3959 14.84 10.0143 14.3529 8.59939 14.4036C7.18449 14.4543 5.84133 15.0391 4.8402 16.0402C3.83908 17.0413 3.25431 18.3845 3.20359 19.7994C3.15288 21.2143 3.63997 22.5959 4.56684 23.6661C5.49371 24.7364 6.79156 25.4158 8.19919 25.5677C9.60682 25.7196 11.0197 25.3327 12.1536 24.4848L16.2336 28.5648C16.3836 28.715 16.5871 28.7995 16.7994 28.7997C17.0117 28.7998 17.2154 28.7156 17.3656 28.5656C17.5158 28.4156 17.6003 28.2121 17.6004 27.9998C17.6006 27.7875 17.5164 27.5838 17.3664 27.4336L13.2848 23.3536ZM8.8 24C7.73913 24 6.72171 23.5786 5.97157 22.8284C5.22142 22.0783 4.8 21.0609 4.8 20C4.8 18.9391 5.22142 17.9217 5.97157 17.1716C6.72171 16.4214 7.73913 16 8.8 16C9.86086 16 10.8783 16.4214 11.6284 17.1716C12.3786 17.9217 12.8 18.9391 12.8 20C12.8 21.0609 12.3786 22.0783 11.6284 22.8284C10.8783 23.5786 9.86086 24 8.8 24Z" fill="#594673"/>
</g>
</svg>
